PathFileType	4	(X/Y/Z)	/Users/gattia/Dropbox/phd_data/bike_study/processing_scripts/../mocap_collections/p017/static_002_dig-bike_study_lower_sept.17.2019_static_func_knee_and_ankle/marker_data.trc
DataRate	CameraRate	NumFrames	NumMarkers	Units	OrigDataRate	OrigDataStartFrame	OrigNumFrames
112.5	112.5	4	107	mm	112.5	1	339
Frame#	Time	Head_Front			Head_R			Head_L			Head_back			Head_top			Arm_R_1			Arm_R_2			Arm_R_3			Arm_R_4			Elbow_R_Lat			Elbow_R_Med			Forearm_R_1			Forearm_R_2			Forearm_R_3			Forearm_R_4			Rad_styl_R			Ul_styl_R			Dig_R_1			Dig_R_3			Dig_R_5			Arm_L_1			Arm_L_2			Arm_L_3			Arm_L_4			Elbow_L_Lat			Elbow_L_Med			Forearm_L_1			Forearm_L_2			Forearm_L_3			Forearm_L_4			Rad_styl_L			Ul_styl_L			Dig_L_1			Dig_L_3			Dig_L_5			xiphoid			sternal_notch			Acr_R			Acr_L			C7			T8			ASIS_R			ASIS_L			PSIS_R			PSIS_L			GT_R			Thigh_R_1			Thigh_R_2			Thigh_R_3			Thigh_R_4			Knee_R_L_Cond			Knee_R_M_Cond			GT_L			Thigh_L_1			Thigh_L_2			Thigh_L_3			Thigh_L_4			Knee_L_L_Cond			Knee_L_M_Cond			Tib_Tib_R			Shank_R_1			Shank_R_2			Shank_R_3			Shank_R_4			Ankle_R_L_Mal			Ankle_R_M_Mal			Tib_Tub_L			Shank_L_1			Shank_L_2			Shank_L_3			Shank_L_4			Ankle_L_L_Mal			Ankle_L_M_Mal			Foot_R_MH_1_Top			Foot_R_MH_5_Top			Foot_R_Calc			Foot_R_Center			Foot_L_MH_1_Top			Foot_L_MH_5_Top			Foot_L_Calc			Foot_L_Center			right_hjc			left_hjc			mid_hjc			mid_pelvis			mid_asis			mid_psis			right_kjc			left_kjc			right_ajc			left_ajc			right_met_1_floor			left_met_1_floor			right_met_5_floor			left_met_5_floor			right_calc_floor			left_calc_floor			right_mid_met_floor			left_mid_met_floor			right_ajc_floor			left_ajc_floor			right_sjc			left_sjc			right_ejc			left_ejc			right_wjc			left_wjc			
		X1	Y1	Z1	X2	Y2	Z2	X3	Y3	Z3	X4	Y4	Z4	X5	Y5	Z5	X6	Y6	Z6	X7	Y7	Z7	X8	Y8	Z8	X9	Y9	Z9	X10	Y10	Z10	X11	Y11	Z11	X12	Y12	Z12	X13	Y13	Z13	X14	Y14	Z14	X15	Y15	Z15	X16	Y16	Z16	X17	Y17	Z17	X18	Y18	Z18	X19	Y19	Z19	X20	Y20	Z20	X21	Y21	Z21	X22	Y22	Z22	X23	Y23	Z23	X24	Y24	Z24	X25	Y25	Z25	X26	Y26	Z26	X27	Y27	Z27	X28	Y28	Z28	X29	Y29	Z29	X30	Y30	Z30	X31	Y31	Z31	X32	Y32	Z32	X33	Y33	Z33	X34	Y34	Z34	X35	Y35	Z35	X36	Y36	Z36	X37	Y37	Z37	X38	Y38	Z38	X39	Y39	Z39	X40	Y40	Z40	X41	Y41	Z41	X42	Y42	Z42	X43	Y43	Z43	X44	Y44	Z44	X45	Y45	Z45	X46	Y46	Z46	X47	Y47	Z47	X48	Y48	Z48	X49	Y49	Z49	X50	Y50	Z50	X51	Y51	Z51	X52	Y52	Z52	X53	Y53	Z53	X54	Y54	Z54	X55	Y55	Z55	X56	Y56	Z56	X57	Y57	Z57	X58	Y58	Z58	X59	Y59	Z59	X60	Y60	Z60	X61	Y61	Z61	X62	Y62	Z62	X63	Y63	Z63	X64	Y64	Z64	X65	Y65	Z65	X66	Y66	Z66	X67	Y67	Z67	X68	Y68	Z68	X69	Y69	Z69	X70	Y70	Z70	X71	Y71	Z71	X72	Y72	Z72	X73	Y73	Z73	X74	Y74	Z74	X75	Y75	Z75	X76	Y76	Z76	X77	Y77	Z77	X78	Y78	Z78	X79	Y79	Z79	X80	Y80	Z80	X81	Y81	Z81	X82	Y82	Z82	X83	Y83	Z83	X84	Y84	Z84	X85	Y85	Z85	X86	Y86	Z86	X87	Y87	Z87	X88	Y88	Z88	X89	Y89	Z89	X90	Y90	Z90	X91	Y91	Z91	X92	Y92	Z92	X93	Y93	Z93	X94	Y94	Z94	X95	Y95	Z95	X96	Y96	Z96	X97	Y97	Z97	X98	Y98	Z98	X99	Y99	Z99	X100	Y100	Z100	X101	Y101	Z101	X102	Y102	Z102	X103	Y103	Z103	X104	Y104	Z104	X105	Y105	Z105	X106	Y106	Z106	X107	Y107	Z107	

1	  0.000000	347.281165	1788.721756	318.267418	158.833804	1756.624992	373.148716	241.676280	1755.806980	179.110632	107.692151	1693.553274	266.129104	219.332386	1857.686016	285.061393	110.409464	1328.856414	513.266615	117.407339	1351.605916	547.953080	116.312554	1328.319146	563.567043	109.180178	1304.648339	528.678824	108.062976	1238.341152	597.038232	181.420875	1211.708894	563.072570	109.378998	1141.448743	698.955457	145.336821	1116.825461	676.874013	149.840608	1102.773140	700.712026	113.527357	1126.649826	721.640133	164.912705	1129.361301	824.870216	131.180225	1066.549176	792.287288	179.667836	1128.758644	890.034018	116.240299	1062.073120	890.284638	125.801134	1026.491515	860.372008	191.135754	1339.815747	-37.577320	153.957786	1334.368076	-19.000966	151.546904	1310.093449	-31.927235	188.226514	1315.072916	-51.324201	145.627397	1228.940869	-60.703774	194.697266	1196.441161	 -6.868419	162.116308	1170.255591	-172.299126	171.831581	1129.414163	-147.124345	180.684768	1116.783037	-170.495365	170.782162	1157.342260	-195.656811	243.438707	1146.730531	-287.826636	211.749183	1079.602345	-259.763454	292.243712	1137.726040	-350.763624	226.367931	1076.976057	-375.253754	229.870131	1036.461782	-348.495159	317.327563	1295.553256	278.211744	278.696128	1491.760527	279.368658	161.421846	1534.863351	443.308776	201.838215	1527.837238	 77.049149	140.526458	1554.578825	274.877501	 95.111636	1362.483948	271.493428	280.128704	1032.321066	416.018588	294.125764	1024.730746	145.880102	100.918849	1066.927104	322.964445	105.433809	1072.375608	202.748657	206.566648	950.566843	464.370988	186.461969	779.229107	470.561066	229.078603	776.407052	475.337809	227.056160	746.140667	475.432565	184.301348	747.567459	470.731733	194.486633	521.942277	440.166981	230.676380	495.938768	349.571953	209.470102	923.314614	 89.069290	241.927637	783.925944	 84.498179	199.609116	779.794470	 86.140260	202.564544	748.648733	 85.770941	245.112379	752.455863	 83.952574	222.435550	511.994252	128.395899	241.431220	493.461832	224.744812	224.390590	447.595362	402.187861	105.886975	422.885241	441.843995	145.307495	413.529940	457.369712	137.706188	383.919908	458.532209	 97.986573	393.396659	443.362659	109.335779	126.749936	427.002055	146.730547	131.623853	347.406346	239.465514	441.785386	175.980712	158.393321	423.741947	110.692293	118.493374	430.884740	127.381392	112.178644	401.580683	126.124974	150.993117	394.388869	108.234974	116.754734	121.665879	143.871898	156.439087	124.455942	218.446007	276.185090	 57.393217	391.321519	215.751894	 51.436570	488.365370	 62.276235	 68.830604	357.650214	155.931626	 61.186814	460.638816	301.657113	 52.642463	164.197036	242.110687	 49.935047	 63.168907	 81.315989	 64.806031	209.165166	169.111353	 64.120614	 99.358441	220.529167	961.764068	367.059382	229.767982	956.754047	188.753407	225.148575	959.259057	277.906395	195.151781	1049.088631	271.902948	287.127234	1028.525906	280.949345	103.176329	1069.651356	262.856551	201.997829	510.276476	394.869467	209.863468	492.704790	176.570355	128.033163	129.186895	387.204200	136.596910	123.060910	181.158953	276.185090	  0.000000	391.321519	301.657113	  0.000000	164.197036	215.751894	  0.000000	488.365370	242.110687	  0.000000	 63.168907	 62.276235	  0.000000	357.650214	 81.315989	  0.000000	209.165166	245.968492	  0.000000	439.843445	271.883900	  0.000000	113.682971	128.033163	  0.000000	387.204200	136.596910	  0.000000	181.158953	161.421846	1465.863351	443.308776	201.838215	1458.837238	 77.049149	144.741926	1225.025023	580.055401	170.162332	1212.691015	-33.786096	148.046465	1097.955239	808.578752	227.593945	1113.166438	-273.795045
2	  0.008889	347.232090	1788.718991	318.314471	158.776829	1756.620811	373.163632	241.649299	1755.803689	179.140285	107.651696	1693.551180	266.137535	219.288782	1857.682904	285.090961	110.382130	1328.828697	513.271222	117.378025	1351.576235	547.960912	116.286029	1328.287295	563.572666	109.151977	1304.620081	528.681027	108.038500	1238.308245	597.037406	181.396595	1211.679340	563.065909	109.364063	1141.405416	698.945345	145.318897	1116.784086	676.857816	149.823630	1102.729725	700.693961	113.515157	1126.601958	721.630886	164.902305	1129.309591	824.855790	131.168422	1066.499356	792.271018	179.663963	1128.700768	890.017728	116.235749	1062.014614	890.270860	125.800052	1026.431072	860.354022	191.108116	1339.808611	-37.560995	153.935229	1334.352124	-18.978337	151.528541	1310.076131	-31.903167	188.203117	1315.064912	-51.307022	145.628002	1228.922633	-60.680210	194.707667	1196.435208	 -6.848031	162.126485	1170.239525	-172.279906	171.851441	1129.401916	-147.102988	180.705631	1116.773283	-170.475528	170.794844	1157.331427	-195.634807	243.449866	1146.735412	-287.808171	211.779679	1079.599134	-259.741719	292.255862	1137.743265	-350.746106	226.396154	1076.973777	-375.229818	229.921837	1036.466730	-348.463751	317.297517	1295.554256	278.215030	278.651313	1491.751739	279.386678	161.383602	1534.841270	443.331196	201.795906	1527.830712	 77.067432	140.492694	1554.570691	274.900755	 95.084279	1362.472501	271.500179	280.112193	1032.320353	416.002438	294.104226	1024.737834	145.856299	100.900900	1066.919285	322.950574	105.412976	1072.371269	202.733689	206.554245	950.564707	464.355193	186.455434	779.227363	470.547403	229.072811	776.406232	475.320928	227.050384	746.140874	475.416444	184.294911	747.565523	470.717409	194.481145	521.941376	440.154373	230.665188	495.935277	349.557634	209.451394	923.313206	 89.049611	241.912985	783.922061	 84.478253	199.595706	779.790743	 86.121841	202.550174	748.645237	 85.754450	245.098125	752.453451	 83.935370	222.417737	511.993538	128.385062	241.418562	493.465631	224.734677	224.382029	447.594390	402.175157	105.880273	422.885912	441.837050	145.302260	413.529568	457.362592	137.701780	383.921475	458.525294	 97.980629	393.397077	443.357180	109.336190	126.749280	427.001690	146.727676	131.619987	347.404665	239.448662	441.786566	175.971859	158.379544	423.736885	110.684832	118.480439	430.876700	127.374884	112.125357	401.605389	126.064199	150.981040	394.384892	108.227933	116.750687	121.662354	143.869045	156.437570	124.456280	218.444759	276.180528	 57.390895	391.320633	215.752938	 51.435702	488.365364	 62.275660	 68.827845	357.649803	155.931344	 61.186178	460.639903	301.654026	 52.641316	164.194951	242.107414	 49.934422	 63.167960	 81.313262	 64.798476	209.164851	169.109047	 64.120614	 99.357872	220.515266	961.759422	367.041544	229.750763	956.754550	188.730518	225.133014	959.256986	277.886031	195.132574	1049.087185	271.885750	287.108209	1028.529093	280.929369	103.156938	1069.645277	262.842132	201.989122	510.273920	394.856003	209.847172	492.705467	176.559869	128.031933	129.184634	387.203178	136.594128	123.059317	181.156902	276.180528	  0.000000	391.320633	301.654026	  0.000000	164.194951	215.752938	  0.000000	488.365364	242.107414	  0.000000	 63.167960	 62.275660	  0.000000	357.649803	 81.313262	  0.000000	209.164851	245.966733	  0.000000	439.842999	271.880720	  0.000000	113.681455	128.031933	  0.000000	387.203178	136.594128	  0.000000	181.156902	161.383602	1465.841270	443.331196	201.795906	1458.830712	 77.067432	144.717548	1224.993792	580.051658	170.167835	1212.678920	-33.764121	148.035364	1097.904473	808.563404	227.614773	1113.167273	-273.774945
3	  0.017778	347.183335	1788.716364	318.360139	158.720389	1756.616670	373.178946	241.621345	1755.800453	179.169708	107.611114	1693.548886	266.146745	219.245171	1857.679814	285.119986	110.354154	1328.800993	513.275711	117.348486	1351.546488	547.968351	116.259188	1328.255472	563.578053	109.123347	1304.591725	528.683220	108.013898	1238.275140	597.036167	181.372234	1211.649686	563.059082	109.348864	1141.362134	698.935109	145.301029	1116.742803	676.841747	149.806659	1102.686312	700.676182	113.502545	1126.554407	721.621292	164.891805	1129.257968	824.841247	131.156754	1066.449579	792.254629	179.659918	1128.643038	890.001402	116.231227	1061.956286	890.256894	125.798768	1026.370912	860.335998	191.080043	1339.801825	-37.544734	153.912152	1334.336669	-18.955993	151.509681	1310.059256	-31.879183	188.179319	1315.057209	-51.289939	145.628250	1228.904809	-60.656966	194.717497	1196.429624	 -6.827740	162.136426	1170.223959	-172.260738	171.871036	1129.390229	-147.081775	180.726461	1116.764002	-170.455734	170.807412	1157.320722	-195.613076	243.461193	1146.740724	-287.789704	211.810083	1079.596488	-259.720157	292.268202	1137.760838	-350.728642	226.424466	1076.971976	-375.206013	229.972042	1036.471592	-348.432840	317.268207	1295.555769	278.218108	278.606752	1491.743023	279.404354	161.345062	1534.819205	443.353210	201.753135	1527.824856	 77.085504	140.458665	1554.562573	274.923670	 95.056970	1362.461310	271.506386	280.095799	1032.319935	415.986237	294.082809	1024.744972	145.832837	100.882893	1066.911791	322.936551	105.392096	1072.366908	202.718603	206.541964	950.562765	464.339253	186.449524	779.225766	470.533570	229.067580	776.405596	475.304122	227.045185	746.140388	475.397444	184.289183	747.563751	470.703080	194.476037	521.940673	440.141855	230.654825	495.932043	349.543562	209.432822	923.311760	 89.030055	241.898738	783.918248	 84.458886	199.582562	779.786996	 86.103886	202.536253	748.641704	 85.738454	245.084236	752.451003	 83.918695	222.400459	511.992777	128.374510	241.406035	493.469213	224.724804	224.374113	447.593488	402.162522	105.874133	422.886588	441.829889	145.297459	413.529381	457.355233	137.697823	383.923005	458.518097	 97.975211	393.397480	443.351416	109.336603	126.748696	427.001145	146.724723	131.615939	347.403660	239.432370	441.787633	175.963148	158.366169	423.731963	110.677378	118.466471	430.870573	127.366783	112.073292	401.629340	126.004669	150.969312	394.380850	108.220990	116.747014	121.658819	143.866164	156.436279	124.456434	218.443395	276.176610	 57.388793	391.319641	215.753998	 51.434849	488.365172	 62.275204	 68.825247	357.649279	155.931207	 61.185522	460.640663	301.651296	 52.640122	164.192931	242.104553	 49.933670	 63.166962	 81.310840	 64.791594	209.164282	169.106996	 64.120422	 99.357218	220.501484	961.755138	367.023726	229.733665	956.755254	188.707907	225.117575	959.255196	277.865817	195.113399	1049.085902	271.868557	287.089304	1028.532453	280.909537	103.137494	1069.639350	262.827577	201.981045	510.271546	394.842709	209.831307	492.706046	176.549657	128.030663	129.182318	387.202403	136.591646	123.057627	181.154779	276.176610	  0.000000	391.319641	301.651296	  0.000000	164.192931	215.753998	  0.000000	488.365172	242.104553	  0.000000	 63.166962	 62.275204	  0.000000	357.649279	 81.310840	  0.000000	209.164282	245.965304	  0.000000	439.842407	271.877924	  0.000000	113.679947	128.030663	  0.000000	387.202403	136.591646	  0.000000	181.154779	161.345062	1465.819205	443.353210	201.753135	1458.824856	 77.085504	144.693066	1224.962413	580.047625	170.172874	1212.667216	-33.742353	148.024280	1097.853773	808.547938	227.635638	1113.168606	-273.754930
4	  0.026667	347.134835	1788.714054	318.403356	158.664748	1756.612398	373.195187	241.591233	1755.797474	179.198757	107.570079	1693.546092	266.157476	219.201082	1857.676752	285.148285	110.324991	1328.773308	513.279902	117.318485	1351.516610	547.975004	116.231692	1328.223697	563.582917	109.093894	1304.563194	528.685276	107.988953	1238.241685	597.034086	181.347594	1211.619840	563.051856	109.332973	1141.318890	698.924480	145.283045	1116.701663	676.825753	149.789466	1102.642882	700.658711	113.488951	1126.507350	721.610909	164.880790	1129.206392	824.826349	131.145041	1066.399789	792.237787	179.655171	1128.585435	889.984916	116.226419	1061.898110	890.242327	125.796760	1026.311177	860.317621	191.050903	1339.795738	-37.528674	153.887838	1334.322173	-18.934282	151.489626	1310.043264	-31.855506	188.154520	1315.050140	-51.273126	145.627643	1228.887862	-60.634484	194.726026	1196.424799	 -6.807835	162.145839	1170.209612	-172.241902	171.890029	1129.379736	-147.061097	180.747126	1116.755799	-170.436287	170.819657	1157.310644	-195.592063	243.472798	1146.747170	-287.771435	211.840233	1079.595176	-259.699218	292.281024	1137.779434	-350.711349	226.453162	1076.971512	-375.182763	230.019660	1036.476702	-348.403334	317.240232	1295.558190	278.220625	278.562471	1491.734437	279.421273	161.305933	1534.797118	443.374424	201.709168	1527.820219	 77.103221	140.424054	1554.554492	274.945990	 95.029623	1362.450561	271.511718	280.079594	1032.320082	415.969855	294.061310	1024.752262	145.809881	100.864699	1066.904878	322.922354	105.370941	1072.362493	202.703433	206.529934	950.561194	464.323031	186.444737	779.224469	470.519413	229.063349	776.405358	475.287404	227.040940	746.138500	475.372618	184.284733	747.562294	470.688733	194.471655	521.940351	440.129464	230.645832	495.929308	349.529943	209.414232	923.310285	 89.010715	241.884995	783.914627	 84.440571	199.569682	779.783269	 86.086714	202.522906	748.638171	 85.723273	245.070791	752.448547	 83.902921	222.384053	511.991936	128.364462	241.393630	493.472410	224.715349	224.367290	447.592712	402.150004	105.869012	422.887291	441.822345	145.293430	413.529540	457.347482	137.694681	383.924493	458.510382	 97.970735	393.397878	443.345143	109.337035	126.748232	427.000294	146.721553	131.611552	347.403910	239.417026	441.788517	175.954663	158.353477	423.727298	110.669958	118.451019	430.867420	127.356237	112.024277	401.651380	125.948493	150.958160	394.376733	108.214218	116.743930	121.655325	143.863236	156.435327	124.456323	218.441825	276.173739	 57.387074	391.318467	215.755087	 51.434063	488.364662	 62.274970	 68.822966	357.648581	155.931320	 61.184876	460.640877	301.649169	 52.638907	164.190992	242.102370	 49.932767	 63.165883	 81.309019	 64.786094	209.163308	169.105378	 64.119947	 99.356412	220.487873	961.751525	367.005916	229.716560	956.756356	188.685758	225.102217	959.253940	277.845837	195.094136	1049.084929	271.851381	287.070452	1028.536172	280.889868	103.117820	1069.633685	262.812894	201.974053	510.269528	394.829704	209.816121	492.706465	176.539906	128.029294	129.179892	387.202102	136.589629	123.055824	181.152531	276.173739	  0.000000	391.318467	301.649169	  0.000000	164.190992	215.755087	  0.000000	488.364662	242.102370	  0.000000	 63.165883	 62.274970	  0.000000	357.648581	 81.309019	  0.000000	209.163308	245.964413	  0.000000	439.841565	271.875769	  0.000000	113.678437	128.029294	  0.000000	387.202102	136.589629	  0.000000	181.152531	161.305933	1465.797118	443.374424	201.709168	1458.820219	 77.103221	144.668274	1224.930763	580.042971	170.176835	1212.656331	-33.721160	148.012916	1097.803090	808.532068	227.656516	1113.171173	-273.735327
